<svg width="665" height="106" viewBox="0 0 665 106" fill="none" xmlns="http://www.w3.org/2000/svg">
<g clip-path="url(#clip0)">
<path d="M56.7 42.2L55.4 45.8C55 47.1 53.6 48.6 51.4 50C49.2 51.5 46.2 52.3 42.5 52.3C38 52.3 34.6 51 31.9 48.3C29.2 45.7 27.9 42.3 27.9 37.8C27.9 33.4 29.2 29.9 31.9 27.3C34.6 24.7 38.1 23.4 42.5 23.4C46.7 23.4 50.1 24.5 52.6 26.5C53.5 27.3 84.3 33.4 84.3 33.4V32C84.3 23.1 80.4 15.5 72.6 9.3C64.9 3.1 54.8 0 42.5 0C29.9 0 19.6 3.3 11.8 9.8C4 16.3 0 25.8 0 37.9C0 50 4 59.4 11.8 66C19.6 72.5 29.9 75.8 42.5 75.8C54.8 75.8 64.9 72.7 72.6 66.5C80.4 60.3 88.1 54.3 88.1 45.5L84.3 42.3H56.7V42.2Z" fill="#273437"/>
<path d="M187.3 9.8C179.5 3.3 169.3 0 156.7 0C144 0 133.6 3.3 125.9 9.8C118.1 16.4 114.2 25.8 114.2 37.9C114.2 50.1 118.2 59.5 126 66.1C133.8 72.5 144.2 75.8 156.8 75.8C161.9 75.8 166.6 75.4 170.7 74.5C177.9 73 183.8 70.1 188.4 66C191.8 62.9 194.3 59.5 195.9 55.7C197.2 52.3 199.3 52.6 201.1 52.1L197.4 49H169L167.5 51.6C167.2 52.1 166.4 53.1 163.8 54.5C161.8 55.6 159.5 56.2 156.7 56.2C152 56.2 148.4 55 146.1 52.7C144.1 50.7 142.9 47.9 142.6 44.4H198.4L198.9 38.2V38.1C199.1 25.8 195.1 16.3 187.3 9.8ZM143.3 28.6C143.7 26.6 144.8 24.7 146.7 22.9C149.1 20.8 152.4 19.7 156.6 19.7C160.7 19.7 164 20.8 166.3 23C168.1 24.8 169.2 26.6 169.5 28.6H143.3Z" fill="#273437"/>
<path d="M283.4 0C280.1 0 276.9 0.5 273.8 1.4C270.8 2.4 268.3 3.5 266.4 4.9C264.7 6.1 263.1 7.5 261.6 9.2C260.9 10 260.3 10.7 259.8 11.4L263.6 4.5L259.8 1.4H232.5V102.4L236.3 105.5L259.8 102.4V67.9C261.5 69.5 263.9 71 266.8 72.4C271.1 74.6 276.6 75.7 283.4 75.7C293.1 75.7 301.3 72.3 307.8 65.7C314.3 59.1 317.5 49.7 317.5 37.9C317.5 26 314.2 16.7 307.8 10.1C301.2 3.4 293 0 283.4 0ZM285.7 47.7C283 50.3 279.4 51.5 274.7 51.5C270.1 51.5 266.4 50.3 263.7 47.8C261.1 45.4 259.8 42.1 259.8 37.9C259.8 33.8 261.1 30.6 263.7 28C266.2 25.5 269.9 24.3 274.7 24.3C279.4 24.3 283.1 25.6 285.7 28.1C288.3 30.6 289.6 33.8 289.6 38C289.6 41.9 288.3 45.1 285.7 47.7Z" fill="#273437"/>
<path d="M422.2 39.7C420.7 38.6 419 37.6 417 36.8C416.3 36.5 415.5 36.2 414.6 36C416.8 35.3 419 33.7 421.1 31C423.3 28.3 424.5 24.9 424.5 20.8C424.5 14.2 422.2 9.29999 417.6 6.09999C413.2 2.99999 406.3 1.39999 397.1 1.39999H350.8V74.4L354.7 77.6L400.5 74.4C410.1 74.4 416.9 72.8 421.4 69.5C425.9 66.1 428.2 60.7 428.2 53.4C428.2 50.6 427.6 47.9 426.5 45.4C425.3 43 423.9 41 422.2 39.7ZM378.2 20.6H390.6C396.7 20.6 396.7 23.2 396.7 24.4C396.7 25.5 396.7 28.2 390.6 28.2H378.2V20.6ZM393 55.1H378.2V46.1H393C400.3 46.1 400.3 49.4 400.3 50.6C400.3 51.8 400.3 55.1 393 55.1Z" fill="#273437"/>
<path d="M511.6 1.29999L488.6 40.3L488.2 41.2L492 4.59999L488.2 1.29999H460.9V74.3L464.7 77.5L492.6 74.3L515.7 35.2L516 34.4V74.3L517.4 77.3L543.4 74.2L547.2 4.49999L543.4 1.29999H511.6Z" fill="#273437"/>
<path d="M619.3 23.4C623.5 23.4 626.9 24.5 629.4 26.5C630.3 27.3 661.1 33.4 661.1 33.4V32C661.1 23.1 657.2 15.5 649.4 9.3C641.7 3.1 631.5 0 619.3 0C606.7 0 596.4 3.3 588.6 9.8C580.8 16.4 576.8 25.8 576.8 37.9C576.8 50 580.8 59.4 588.6 66C596.4 72.5 606.7 75.8 619.3 75.8C631.6 75.8 641.7 72.7 649.4 66.5C657.2 60.3 664.9 54.3 664.9 45.5L661.1 42.3H633.5L632.2 45.8V45.9C631.8 47.2 630.4 48.7 628.2 50.1C626 51.6 623 52.4 619.3 52.4C614.8 52.4 611.4 51.1 608.7 48.4C606 45.8 604.7 42.4 604.7 37.9C604.7 33.5 606 30 608.7 27.4C611.4 24.7 614.8 23.4 619.3 23.4Z" fill="#273437"/>
<path d="M16.6 67.9C9.00005 61.7 5.30005 52.7 5.30005 41C5.30005 29.3 9.10005 20.4 16.6 14.1C24.1 7.80001 34 4.60001 46.3 4.60001C58.3 4.60001 68 7.60001 75.5 13.6C82.9 19.5 86.6 26.7 86.6 35.1H61.5C60.9001 33.4 60.3001 32.2 59.9001 31.5C59.2001 30.4 58.4 29.4 57.3 28.5C54.5 26.2 50.8 25 46.2001 25C41.4001 25 37.5 26.4 34.6 29.3C31.6 32.3 30.2001 36.1 30.2001 40.9C30.2001 45.7 31.7 49.6 34.6 52.5C37.5 55.4 41.4001 56.9 46.2001 56.9C50.2001 56.9 53.4001 56.1 55.9001 54.4C58.4001 52.8 59.9001 51.1 60.5 49.4L61.5 46.9H86.6C86.6 55.3 82.9 62.5 75.5 68.4C68 74.4 58.3 77.4 46.3 77.4C34 77.4 24.1 74.2 16.6 67.9Z" fill="#F8FCFC" stroke="#273437" stroke-width="3" stroke-miterlimit="10"/>
<path d="M201.4 41L201 45.8H145C145.1 50.4 146.4 54.1 149 56.7C151.6 59.3 155.5 60.6 160.6 60.6C163.6 60.6 166.2 60 168.4 58.8C170.6 57.6 172 56.4 172.6 55.3L173.6 53.5H199.6C199.6 54.3 199.1 55.9 198.2 58.2C196.7 61.8 194.3 65.1 191.1 68C186.7 72 181 74.7 174.1 76.1C170.1 77 165.6 77.4 160.5 77.4C148.1 77.4 138.2 74.3 130.6 68C123.1 61.8 119.3 52.8 119.3 41C119.3 29.3 123 20.4 130.5 14.1C138 7.80001 147.9 4.70001 160.3 4.70001C172.5 4.70001 182.4 7.80001 189.9 14.1C197.4 20.4 201.4 29.3 201.4 41ZM160.5 21.4C155.9 21.4 152.3 22.6 149.6 25C146.9 27.5 145.6 30.2 145.6 33.3H175C175 30.3 173.7 27.6 171.2 25.1C168.6 22.6 165 21.4 160.5 21.4Z" fill="#F8FCFC" stroke="#273437" stroke-width="3" stroke-miterlimit="10"/>
<path d="M310.5 14.2C316.7 20.5 319.8 29.5 319.8 41C319.8 52.5 316.7 61.5 310.5 67.8C304.3 74.2 296.5 77.4 287.2 77.4C280.6 77.4 275.3 76.4 271.3 74.3C268.1 72.7 265.7 71.1 264 69.4L263.2 68.4H262.2V104H237.9V6.00001H262.2V18H263.4C264 16.6 265.1 15 266.7 13.3C268.1 11.8 269.6 10.4 271.2 9.30001C273 8.00001 275.3 6.90001 278.2 6.00001C281.1 5.10001 284.1 4.60001 287.3 4.60001C296.5 4.60001 304.2 7.80001 310.5 14.2ZM290.5 51.9C293.4 49.1 294.9 45.5 294.9 41C294.9 36.5 293.4 32.8 290.5 30.1C287.6 27.3 283.6 25.9 278.5 25.9C273.3 25.9 269.3 27.3 266.5 30.1C263.6 32.9 262.1 36.5 262.1 41C262.1 45.6 263.6 49.3 266.5 52C269.4 54.7 273.4 56.1 278.5 56.1C283.6 56.1 287.5 54.7 290.5 51.9Z" fill="#F8FCFC" stroke="#273437" stroke-width="3" stroke-miterlimit="10"/>
<path d="M430.5 56.5C430.5 63.3 428.4 68.3 424.3 71.4C420.2 74.5 413.5 76 404.3 76H356.1V6H400.9C409.8 6 416.3 7.5 420.5 10.4C424.7 13.3 426.8 17.8 426.8 23.9C426.8 27.6 425.8 30.7 423.8 33.1C421.8 35.6 419.9 37.1 417.9 37.6L414.8 38.6V39.6C417 40.1 418.8 40.6 420.3 41.2C422.1 42 423.7 42.9 425.1 43.9C426.6 45.1 427.9 46.8 429 49.1C430 51.5 430.5 53.9 430.5 56.5ZM380.5 32.9H394.4C399.5 32.9 402 31.1 402 27.6C402 24.1 399.5 22.3 394.4 22.3H380.5V32.9ZM380.5 59.7H396.8C402.7 59.7 405.6 57.7 405.6 53.7C405.6 49.7 402.7 47.7 396.8 47.7H380.5V59.7Z" fill="#F8FCFC" stroke="#273437" stroke-width="3" stroke-miterlimit="10"/>
<path d="M545.7 76H521.4V37.7L523.1 28.6H521.5L518.3 37.7L495.5 76H466.1V6H490.4V44.3L488.8 53.4H490.3L493.6 44.3L516.3 6H545.7V76Z" fill="#F8FCFC" stroke="#273437" stroke-width="3" stroke-miterlimit="10"/>
<path d="M593.3 67.9C585.8 61.7 582 52.7 582 41C582 29.3 585.8 20.4 593.3 14.1C600.8 7.80001 610.7 4.70001 623 4.70001C635 4.70001 644.7 7.70001 652.2 13.7C659.6 19.6 663.3 26.8 663.3 35.2H638.2C637.6 33.5 637 32.3 636.6 31.6C635.9 30.5 635.1 29.5 634 28.6C631.2 26.3 627.5 25.1 622.9 25.1C618.1 25.1 614.2 26.5 611.3 29.4C608.3 32.4 606.9 36.2 606.9 41C606.9 45.8 608.4 49.7 611.3 52.6C614.2 55.5 618.1 57 622.9 57C626.9 57 630.1 56.2 632.6 54.5C635.1 52.9 636.6 51.2 637.2 49.5L638.2 47H663.3C663.3 55.4 659.6 62.6 652.2 68.5C644.7 74.5 635 77.5 623 77.5C610.7 77.4 600.8 74.2 593.3 67.9Z" fill="#F8FCFC" stroke="#273437" stroke-width="3" stroke-miterlimit="10"/>
</g>
<defs>
<clipPath id="clip0">
<rect width="664.9" height="105.5" fill="white"/>
</clipPath>
</defs>
</svg>
